<?xml version="1.0" standalone="no"?><!DOCTYPE svg PUBLIC "-//W3C//DTD SVG 1.1//EN" "http://www.w3.org/Graphics/SVG/1.1/DTD/svg11.dtd"><svg t="1757674248910" class="icon" viewBox="0 0 1024 1024" version="1.1" xmlns="http://www.w3.org/2000/svg" p-id="34805" xmlns:xlink="http://www.w3.org/1999/xlink" width="200" height="200"><path d="M529.74933333 944.81066667c-6.144 0-12.288 0-18.432-0.68266667-116.05333333-4.77866667-225.96266667-52.56533333-307.88266666-134.48533333a51.47306667 51.47306667 0 0 1 0-72.36266667c19.79733333-19.79733333 52.56533333-19.79733333 72.36266666 0 64.17066667 64.17066667 149.504 101.03466667 239.616 104.448 199.33866667 5.46133333 365.22666667-147.456 372.736-345.42933333 3.41333333-96.256-30.03733333-187.73333333-95.57333333-258.048S639.65866667 127.65866667 543.40266667 123.56266667c-107.17866667-3.41333333-208.21333333 38.912-279.89333334 117.41866666-18.432 21.16266667-51.2 22.528-71.68 3.41333334a50.92693333 50.92693333 0 0 1-3.41333333-72.36266667C280.576 70.99733333 412.33066667 15.01866667 548.18133333 21.16266667c123.56266667 4.77866667 237.568 57.344 320.85333334 148.13866666a458.20586667 458.20586667 0 0 1 122.19733333 331.776c-9.55733333 247.808-215.04 443.73333333-461.48266667 443.73333334z" fill="#0f4cea" p-id="34806"></path><path d="M496.73333333 683.93333333h-1.2a45.24 45.24 0 0 1-37.8-22.8L395.33333333 553.13333333 316.13333333 648.53333333c-9.6 10.8-22.8 17.4-37.8 16.2a44.88 44.88 0 0 1-34.8-21l-44.4-70.8-67.2 72.6c-16.8 18-45.6 19.2-63.6 2.4a45.3 45.3 0 0 1-2.4-63.6L173.33333333 468.53333333c9.6-10.2 23.4-15.6 37.2-14.4 13.8 1.2 26.4 9 33.6 21l42.6 67.8 81-97.2c9.6-11.4 24-17.4 38.4-16.2 15 1.8 28.2 10.2 35.4 22.8l57.6 100.2L611.33333333 381.53333333c13.8-21 41.4-27 62.4-13.2 21 13.8 26.4 41.4 13.2 62.4l-151.8 232.8c-9 12.6-23.4 20.4-38.4 20.4zM967.73333333 964.73333333c-11.4 0-22.8-4.2-31.8-13.2l-145.2-145.2c-17.4-17.4-17.4-46.2 0-63.6s46.2-17.4 63.6 0l145.2 145.2c17.4 17.4 17.4 46.2 0 63.6-9 9-20.4 13.2-31.8 13.2z" fill="#0f4cea" p-id="34807"></path><path d="M649.6 364.16m-104.96 0a104.96 104.96 0 1 0 209.92 0 104.96 104.96 0 1 0-209.92 0Z" fill="#1296db" p-id="34808"></path></svg>